<svg width="20" height="20" viewBox="0 0 20 20" fill="none" xmlns="http://www.w3.org/2000/svg">
<g id="&#240;&#159;&#166;&#134; icon &#34;x circle&#34;">
<path id="Vector" d="M13.8359 5.22095L10.1791 8.87773L6.5223 5.22095L5.57947 6.16374L9.23629 9.82052L5.57947 13.4773L6.5223 14.4201L10.1791 10.7634L13.8359 14.4201L14.7787 13.4773L11.1219 9.82052L14.7787 6.16374L13.8359 5.22095Z" fill="#E35C65"/>
<path id="Vector_2" d="M17.0711 2.92893C15.1957 1.05357 12.6522 -1.97602e-08 10 0C7.34783 1.97602e-08 4.8043 1.05357 2.92893 2.92893C1.05357 4.8043 1.97602e-08 7.34783 0 10C-1.97602e-08 12.6522 1.05357 15.1957 2.92893 17.0711C4.8043 18.9464 7.34783 20 10 20C12.6522 20 15.1957 18.9464 17.0711 17.0711C18.9464 15.1957 20 12.6522 20 10C20 7.34783 18.9464 4.8043 17.0711 2.92893ZM10 18.6666C5.22122 18.6666 1.33335 14.7788 1.33335 10C1.33335 5.22122 5.22122 1.33335 10 1.33335C14.7788 1.33335 18.6666 5.22122 18.6666 10C18.6666 14.7788 14.7788 18.6666 10 18.6666Z" fill="#E35C65"/>
</g>
</svg>
