<svg width="47" height="47" viewBox="0 0 47 47" fill="none" xmlns="http://www.w3.org/2000/svg">
<path d="M31.6327 4.35211H15.7258C8.81635 4.35211 4.69727 8.4712 4.69727 15.3806V31.2685C4.69727 38.1969 8.81635 42.316 15.7258 42.316H31.6137C38.5231 42.316 42.6422 38.1969 42.6422 31.2875V15.3806C42.6612 8.4712 38.5421 4.35211 31.6327 4.35211ZM21.6861 33.7931C21.1356 34.3436 20.0916 34.8751 19.3324 34.989L14.6628 35.6534C14.492 35.6723 14.3211 35.6913 14.1503 35.6913C13.372 35.6913 12.6507 35.4256 12.1382 34.9131C11.5118 34.2867 11.246 33.3755 11.3979 32.3695L12.0623 27.6999C12.1762 26.9217 12.6887 25.8966 13.2581 25.3462L21.7241 16.8802C22.0258 17.7305 22.4071 18.5503 22.863 19.3289C23.0528 19.6516 23.2616 19.9553 23.4325 20.1831C23.6413 20.5058 23.888 20.8095 24.0399 20.9803C24.1348 21.1132 24.2107 21.2081 24.2487 21.2461C24.7232 21.8155 25.2737 22.347 25.7483 22.7456C25.8811 22.8785 25.9571 22.9544 25.995 22.9734C26.2797 23.2012 26.5645 23.429 26.8112 23.5998C27.115 23.8276 27.4187 24.0364 27.7414 24.2072C28.121 24.435 28.5386 24.6438 28.9562 24.8526C29.3928 25.0424 29.7914 25.2133 30.19 25.3462L21.6861 33.7931ZM33.8725 21.6067L32.1262 23.372C32.0712 23.4266 32.0061 23.4697 31.9344 23.4991C31.8628 23.5284 31.786 23.5433 31.7086 23.5429C31.6516 23.5429 31.5757 23.5429 31.5377 23.5239C29.6309 22.9711 27.8948 21.9451 26.491 20.5413C25.0872 19.1374 24.0611 17.4014 23.5084 15.4945C23.4514 15.2857 23.5084 15.0579 23.6602 14.9251L25.4256 13.1597C28.3108 10.2745 31.0632 10.3314 33.8915 13.1597C35.3341 14.6024 36.0365 15.9881 36.0365 17.4307C36.0175 18.7974 35.3152 20.1641 33.8725 21.6067Z" fill="#1F1E1F"/>
</svg>
