<svg width="15" height="15" viewBox="0 0 15 15" fill="none" xmlns="http://www.w3.org/2000/svg">
<path d="M8.95001 11.9188C8.95001 12.3001 8.70001 12.8001 8.38126 12.9938L7.50001 13.5626C6.68126 14.0688 5.54376 13.5001 5.54376 12.4876V9.14385C5.54376 8.7001 5.29376 8.13135 5.03751 7.81885L2.63751 5.29385C2.31876 4.9751 2.06876 4.4126 2.06876 4.03135V2.58135C2.06876 1.8251 2.63751 1.25635 3.33126 1.25635H11.6688C12.3625 1.25635 12.9313 1.8251 12.9313 2.51885V3.90635C12.9313 4.4126 12.6125 5.04385 12.3 5.35635" stroke="white" stroke-width="1.5" stroke-miterlimit="10" stroke-linecap="round" stroke-linejoin="round"/>
<path d="M12.4188 10.7L11.7938 10.075M10.0438 10.325C10.5742 10.325 11.0829 10.1142 11.458 9.73916C11.833 9.36409 12.0438 8.85538 12.0438 8.32495C12.0438 7.79452 11.833 7.28581 11.458 6.91074C11.0829 6.53567 10.5742 6.32495 10.0438 6.32495C9.51333 6.32495 9.00462 6.53567 8.62955 6.91074C8.25448 7.28581 8.04376 7.79452 8.04376 8.32495C8.04376 8.85538 8.25448 9.36409 8.62955 9.73916C9.00462 10.1142 9.51333 10.325 10.0438 10.325Z" stroke="white" stroke-width="1.5" stroke-linecap="round" stroke-linejoin="round"/>
</svg>
